<svg width="24" height="24" viewBox="0 0 24 24" fill="none" xmlns="http://www.w3.org/2000/svg">
<path d="M19 0C21.7614 0 24 2.23858 24 5V19C24 21.7614 21.7614 24 19 24H5C2.23858 24 0 21.7614 0 19V5C0 2.23858 2.23858 0 5 0H19ZM9.41504 15.5537C8.97708 15.5538 8.54875 15.6835 8.18457 15.9268C7.82025 16.1702 7.53584 16.5171 7.36816 16.9219C7.20071 17.3264 7.15683 17.7717 7.24219 18.2012C7.32767 18.6309 7.53882 19.0261 7.84863 19.3359C8.15846 19.6458 8.55366 19.8569 8.9834 19.9424C9.41286 20.0278 9.85812 19.9839 10.2627 19.8164C10.6675 19.6487 11.0144 19.3643 11.2578 19C11.5011 18.6358 11.6308 18.2075 11.6309 17.7695V15.5537H9.41504ZM9.41504 10.3848C8.82762 10.3849 8.26401 10.6178 7.84863 11.0332C7.43326 11.4486 7.2003 12.0122 7.2002 12.5996C7.2002 13.1872 7.43317 13.7515 7.84863 14.167C8.264 14.5823 8.82766 14.8153 9.41504 14.8154H11.6309V10.3848H9.41504ZM14.585 10.3848C13.9976 10.3848 13.434 10.618 13.0186 11.0332C12.6032 11.4486 12.3692 12.0122 12.3691 12.5996C12.3691 13.1872 12.6031 13.7515 13.0186 14.167C13.434 14.5822 13.9976 14.8154 14.585 14.8154C15.1723 14.8153 15.736 14.5823 16.1514 14.167C16.5668 13.7515 16.7998 13.1872 16.7998 12.5996C16.7997 12.0122 16.5667 11.4486 16.1514 11.0332C15.736 10.6178 15.1724 10.3849 14.585 10.3848ZM9.41504 5.21582C8.82761 5.21591 8.26402 5.44887 7.84863 5.86426C7.43327 6.27969 7.20022 6.8432 7.2002 7.43066C7.2002 8.01811 7.43331 8.58163 7.84863 8.99707C8.26402 9.41245 8.82761 9.64639 9.41504 9.64648H14.585C15.1724 9.64639 15.736 9.41245 16.1514 8.99707C16.5667 8.58163 16.7998 8.01811 16.7998 7.43066C16.7998 6.8432 16.5667 6.27969 16.1514 5.86426C15.736 5.44887 15.1724 5.21591 14.585 5.21582H9.41504Z" fill="#1B85AF"/>
</svg>
