<svg width="24" height="24" viewBox="0 0 24 24" fill="none" xmlns="http://www.w3.org/2000/svg">
<path d="M18 0C19.5913 0 21.117 0.632594 22.2422 1.75781C23.3674 2.88303 24 4.4087 24 6V18C24 19.5913 23.3674 21.117 22.2422 22.2422C21.117 23.3674 19.5913 24 18 24H6C4.4087 24 2.88303 23.3674 1.75781 22.2422C0.632594 21.117 0 19.5913 0 18V6C6.31414e-08 4.4087 0.632594 2.88303 1.75781 1.75781C2.88303 0.632594 4.4087 6.3141e-08 6 0H18ZM16.6797 9.62402C16.4279 9.61212 16.3564 9.70834 16.3564 9.94824V17.4844C16.3565 17.7001 16.4164 17.7959 16.6562 17.7959H18.3838C18.5757 17.7959 18.6601 17.736 18.6602 17.5322C18.6522 14.9802 18.6522 12.4317 18.6602 9.8877C18.6601 9.62403 18.5639 9.62402 18.3721 9.62402H16.6797ZM8.96387 6.98438C8.73595 6.9724 8.63965 7.03222 8.63965 7.28418C8.63525 7.49544 8.60327 7.7054 8.54395 7.9082C8.32796 8.59214 8.08763 9.27603 7.84766 9.95996L5.25586 17.4355C5.15989 17.7354 5.18398 17.7363 5.47168 17.7363H7.11621C7.15803 17.7449 7.20139 17.7441 7.24316 17.7354C7.28494 17.7265 7.32455 17.7093 7.35938 17.6846C7.39413 17.6599 7.42323 17.6283 7.44531 17.5918C7.46744 17.5552 7.48257 17.5141 7.48828 17.4717C7.69221 16.8 7.92009 16.1522 8.12402 15.4805C8.12954 15.4354 8.14456 15.3915 8.16797 15.3525C8.19146 15.3135 8.22337 15.28 8.26074 15.2539C8.29805 15.2279 8.34011 15.2097 8.38477 15.2012C8.42937 15.1927 8.47533 15.1937 8.51953 15.2041H11.7119C11.7544 15.1955 11.7983 15.1955 11.8408 15.2041C11.8834 15.2128 11.9241 15.2302 11.96 15.2549C11.9957 15.2795 12.0265 15.311 12.0498 15.3477C12.0731 15.3842 12.0885 15.4251 12.0957 15.4678C12.3237 16.1518 12.564 16.8241 12.792 17.4961C12.8039 17.5705 12.8447 17.6378 12.9053 17.6826C12.9658 17.7273 13.0417 17.7467 13.1162 17.7363H14.9883C15.2759 17.7363 15.2882 17.7118 15.1924 17.4482C14.9764 16.8123 14.7475 16.1763 14.5195 15.5283L11.5684 7.21191C11.5084 6.98391 11.4239 6.98438 11.2559 6.98438H8.96387ZM11.376 13.1035H8.83203L9.24023 11.7637C9.52076 10.8293 9.78831 9.90246 10.0322 8.97559C10.0429 9.006 10.0529 9.03697 10.0635 9.06738C10.0728 9.03687 10.0824 9.0061 10.0918 8.97559C10.5118 10.3434 10.944 11.7117 11.376 13.1035ZM17.5078 6.2041C17.3374 6.19934 17.1678 6.22854 17.0088 6.29004C16.8497 6.35163 16.7039 6.44417 16.5811 6.5625C16.4583 6.68082 16.3604 6.8229 16.293 6.97949C16.2255 7.13614 16.1901 7.30505 16.1885 7.47559C16.1743 7.6473 16.1973 7.8204 16.2559 7.98242C16.3144 8.14439 16.4067 8.29211 16.5273 8.41504C16.648 8.538 16.7942 8.63371 16.9551 8.69531C17.1159 8.75684 17.2881 8.78336 17.46 8.77246H17.5078C17.6716 8.77276 17.8339 8.73859 17.9844 8.67383C18.1348 8.6091 18.2704 8.5146 18.3828 8.39551C18.4952 8.2764 18.5818 8.13536 18.6377 7.98145C18.6936 7.82744 18.7178 7.66354 18.708 7.5C18.7213 7.33465 18.6998 7.16848 18.6455 7.01172C18.5912 6.85494 18.5053 6.71063 18.3926 6.58887C18.2798 6.46706 18.1425 6.36993 17.9902 6.30371C17.8381 6.23755 17.6737 6.20357 17.5078 6.2041Z" fill="#63A763"/>
</svg>
