<svg width="24" height="24" viewBox="0 0 24 24" fill="none" xmlns="http://www.w3.org/2000/svg">
<path fill-rule="evenodd" clip-rule="evenodd" d="M4.36364 0C3.20633 0 2.09642 0.459739 1.27808 1.27808C0.459739 2.09642 0 3.20633 0 4.36364V19.6364C0 20.7937 0.459739 21.9036 1.27808 22.7219C2.09642 23.5403 3.20633 24 4.36364 24H19.6364C20.7937 24 21.9036 23.5403 22.7219 22.7219C23.5403 21.9036 24 20.7937 24 19.6364V4.36364C24 3.20633 23.5403 2.09642 22.7219 1.27808C21.9036 0.459739 20.7937 0 19.6364 0H4.36364ZM15.2727 6H17.4545V16.68C16.8382 16.8938 15.3229 17.3236 14.1949 17.3236C12.7855 17.3236 10.2873 16.5982 10.2873 13.2153C10.2873 10.284 12.7276 9.17891 15.2727 9.17891V6ZM15.2727 11.0444V15.408C14.3673 15.408 12.5455 15.1756 12.5455 13.2262C12.5455 11.2767 14.3673 11.0444 15.2727 11.0444ZM8.72727 7.09091H6.54545V16.9091H8.72727V7.09091Z" fill="#63A763"/>
</svg>
