<svg width="24" height="26" viewBox="0 0 24 26" fill="none" xmlns="http://www.w3.org/2000/svg">
<path d="M9.5927 9.16821C9.10445 9.16821 8.7598 9.21129 8.57312 9.25437V12.5285C8.78853 12.586 9.07573 12.6003 9.43474 12.6003C10.7559 12.6003 11.5601 11.9541 11.5601 10.8197C11.5601 9.74263 10.8133 9.16821 9.5927 9.16821Z" fill="#1B85AF"/>
<path fill-rule="evenodd" clip-rule="evenodd" d="M5.17235 1.3575C9.71026 0.854793 14.2898 0.854793 18.8277 1.3575C21.3068 1.63426 23.3055 3.58596 23.5967 6.07422C24.1344 10.6756 24.1344 15.324 23.5967 19.9254C23.3055 22.4137 21.3068 24.3654 18.829 24.6434C14.2907 25.1462 9.71069 25.1462 5.17235 24.6434C2.69323 24.3654 0.694536 22.4137 0.403412 19.9267C-0.134471 15.3249 -0.134471 10.6761 0.403412 6.07422C0.694536 3.58596 2.69323 1.63426 5.17235 1.3575ZM8.57314 17.569H6.82118V8.01939C7.45303 7.90451 8.32901 7.81834 9.52092 7.81834C10.8134 7.81834 11.7611 8.09119 12.3786 8.60816C12.953 9.08205 13.3264 9.84315 13.3264 10.7479C13.3264 11.6669 13.0392 12.428 12.4935 12.945C11.7885 13.6486 10.6841 13.9789 9.43476 13.9789C9.10447 13.9789 8.8029 13.9646 8.57314 13.9215V17.569ZM15.7938 17.569H14.0275V12.8301C14.0275 11.8823 14.0144 11.2074 13.97 10.5755H15.5066L15.564 11.911H15.6215C15.9661 10.9202 16.7846 10.4176 17.5314 10.4176C17.7037 10.4176 17.8055 10.4319 17.9491 10.4606V12.1264C17.7787 12.0901 17.6051 12.0708 17.4309 12.069C16.5836 12.069 16.0092 12.6147 15.8512 13.4045C15.8155 13.5843 15.7962 13.7669 15.7938 13.9502V17.569Z" fill="#1B85AF"/>
</svg>
