<svg width="24" height="24" viewBox="0 0 24 24" fill="none" xmlns="http://www.w3.org/2000/svg">
<path d="M18 0C19.5913 0 21.117 0.632594 22.2422 1.75781C23.3674 2.88303 24 4.4087 24 6V18C24 19.5913 23.3674 21.117 22.2422 22.2422C21.117 23.3674 19.5913 24 18 24H6C4.4087 24 2.88303 23.3674 1.75781 22.2422C0.632594 21.117 0 19.5913 0 18V6C6.31414e-08 4.4087 0.632594 2.88303 1.75781 1.75781C2.88303 0.632594 4.4087 6.3141e-08 6 0H18ZM17.4844 9.1084C16.6797 8.98143 15.8557 9.05059 15.084 9.31152C14.6558 9.45152 14.2759 9.7098 13.9873 10.0557C13.6988 10.4015 13.5132 10.8214 13.4521 11.2676C13.3764 11.7313 13.4518 12.2078 13.668 12.625C13.8842 13.0422 14.2298 13.3784 14.6523 13.584C15.1203 13.8599 15.6243 14.052 16.1162 14.292C16.424 14.4211 16.7177 14.5825 16.9922 14.7725C17.0524 14.8198 17.0998 14.8822 17.1289 14.9531C17.1579 15.0239 17.1678 15.1009 17.1582 15.1768C17.1485 15.2529 17.1192 15.3262 17.0732 15.3877C17.0274 15.4489 16.9665 15.4976 16.8965 15.5283C16.7782 15.5843 16.6539 15.6244 16.5244 15.6484C15.8759 15.7371 15.2152 15.6797 14.5918 15.4805C14.2198 15.3605 13.8596 15.1918 13.4756 15.0479V16.8604C13.4871 16.9122 13.5108 16.9605 13.5439 17.002C13.5772 17.0435 13.6198 17.077 13.668 17.0996C13.9807 17.2196 14.3008 17.3157 14.6279 17.3877C15.7178 17.6458 16.8607 17.5667 17.9043 17.1602L17.8916 17.1123C18.3052 16.9628 18.6676 16.6974 18.9355 16.3486C19.2034 15.9999 19.3664 15.5816 19.4043 15.1436C19.4593 14.7045 19.3721 14.2593 19.1562 13.873C18.9404 13.4867 18.6069 13.1794 18.2041 12.9961C17.7601 12.7441 17.2802 12.5639 16.8242 12.3359C16.4436 12.1672 16.0795 11.9674 15.7324 11.7363C15.6727 11.6872 15.626 11.6231 15.5986 11.5508C15.5712 11.4785 15.564 11.3996 15.5762 11.3232C15.5883 11.2471 15.6197 11.1753 15.668 11.1152C15.7163 11.0551 15.7798 11.0088 15.8516 10.9805C15.9576 10.9304 16.072 10.8973 16.1885 10.8838C17.0103 10.8041 17.8386 10.9451 18.5879 11.292C18.8279 11.388 18.8877 11.3636 18.8877 11.0996V9.62207C18.8793 9.45309 18.8026 9.32423 18.624 9.32422C18.2401 9.25224 17.8682 9.10849 17.4844 9.1084ZM4.95605 6.54004C4.65624 6.54004 4.65625 6.61191 4.65625 6.85156V16.9678C4.65625 17.1838 4.71634 17.2676 4.94434 17.2676H6.52832C6.76805 17.2675 6.83983 17.1959 6.83984 16.9561V14.1719C6.83984 13.8481 6.84004 13.8477 7.17578 13.8477H8.78418C9.50034 13.8074 10.1943 13.5847 10.7998 13.2002C11.3306 12.8582 11.756 12.3749 12.0273 11.8047C12.2987 11.2345 12.4054 10.5993 12.3359 9.97168C12.3346 9.38805 12.1787 8.81517 11.8838 8.31152C11.5886 7.80766 11.165 7.39018 10.6562 7.10352C10.0672 6.7523 9.39748 6.55862 8.71191 6.54004H4.95605ZM6.95996 8.48438C7.64635 8.40751 8.34083 8.45206 9.01172 8.61621C9.34934 8.70874 9.64544 8.9136 9.85059 9.19727C10.0557 9.48092 10.1575 9.8262 10.1396 10.1758C10.1578 10.5401 10.0483 10.8998 9.8291 11.1914C9.60986 11.483 9.29453 11.6887 8.93945 11.7725C8.31321 11.9573 7.65988 12.0341 7.00781 12C6.84015 11.9999 6.82816 11.8922 6.82812 11.7725V8.71191C6.82817 8.6279 6.91197 8.48438 6.95996 8.48438Z" fill="#1B85AF"/>
</svg>
