<svg width="24" height="24" viewBox="0 0 24 24" fill="none" xmlns="http://www.w3.org/2000/svg">
<path d="M19 0C21.7614 0 24 2.23858 24 5V19C24 21.7614 21.7614 24 19 24H5C2.23858 24 0 21.7614 0 19V5C0 2.23858 2.23858 0 5 0H19ZM15.6025 15.2842L11.2949 11.998L15.6025 8.71289V15.2842ZM19.2002 7.13672C19.2001 6.78899 19.0016 6.47191 18.6904 6.32129L15.7246 4.8877C15.5572 4.8076 15.3685 4.78118 15.1855 4.8125C15.0025 4.84391 14.8334 4.9321 14.7021 5.06348L9.02637 10.2666L6.55371 8.38086C6.44249 8.29619 6.3047 8.25272 6.16504 8.25879C6.02549 8.26494 5.89244 8.32011 5.78906 8.41406L4.99609 9.14062C4.93443 9.19738 4.88426 9.26602 4.85059 9.34277C4.81703 9.4194 4.79982 9.50228 4.7998 9.58594C4.7998 9.66955 4.81707 9.7525 4.85059 9.8291C4.88426 9.90586 4.93443 9.97547 4.99609 10.0322L7.13867 11.998L4.99609 13.9648C4.93448 14.0216 4.88425 14.0903 4.85059 14.167C4.81692 14.2437 4.7998 14.3273 4.7998 14.4111C4.79984 14.4948 4.81702 14.5777 4.85059 14.6543C4.88426 14.7311 4.93443 14.7997 4.99609 14.8564L5.78906 15.582C5.89241 15.6764 6.02525 15.732 6.16504 15.7383C6.30471 15.7445 6.44236 15.7017 6.55371 15.6172L9.02637 13.7305L14.7021 18.9346C14.8329 19.0669 15.0022 19.1559 15.1855 19.1875C15.3687 19.2191 15.5572 19.1921 15.7246 19.1113L18.6904 17.6768C19.0016 17.5261 19.2001 17.2091 19.2002 16.8613V7.13672Z" fill="#1B85AF"/>
</svg>
