<svg width="24" height="24" viewBox="0 0 24 24" fill="none" xmlns="http://www.w3.org/2000/svg">
<path d="M21 0C22.6569 0 24 1.34315 24 3V21C24 22.6569 22.6569 24 21 24H3C1.34315 24 0 22.6569 0 21V3C0 1.34315 1.34315 0 3 0H21ZM13.8691 12.1445C13.4576 10.8344 13.4711 10.5747 12.5361 11.376C12.032 11.7888 11.1374 12.2341 10.7959 12.3555C9.77177 12.5985 9.36536 13.7391 10.1943 13.8525C11.0236 13.9659 11.4727 13.8365 11.2471 14.0732C11.0215 14.3099 10.6867 14.5222 11.0645 14.7285C11.4425 14.9349 12.1646 15.4456 12.2061 15.4941C12.2486 15.5426 12.5833 15.5842 12.6807 15.3418C12.7778 15.0997 12.693 15.0326 12.626 14.9961C12.5589 14.9597 12.6316 14.85 12.79 14.8682C12.9486 14.8864 13.3265 14.7406 13.418 14.6738C13.5094 14.6071 14.5823 14.4316 14.8447 14.8018C14.5474 14.894 14.4606 14.703 14.04 14.8506C13.8092 14.9394 13.2492 15.0104 12.9854 15.6035C12.7883 16.0468 12.7146 16.9609 11.9102 16.7021C11.1052 16.4431 10.2782 16.198 10.4062 15.3906C10.5343 14.5832 10.4786 14.0606 10.0273 14.0303C10.003 14.1578 10.1371 14.9052 10.0273 15.5244C9.84454 15.9855 9.78347 16.2648 10.1436 16.5439C10.5042 16.8234 13.1943 18.0862 14.7715 19.7695C15.3752 20.3807 15.6805 19.6216 15.2354 19.2695C15.1131 19.1357 14.5405 18.6262 14.5527 18.4502C14.5651 18.2745 14.8934 18.6135 15.0156 18.7412C14.6869 18.0795 15.4067 17.2366 16.1748 18.1895C16.4874 18.4911 16.2681 19.2031 16 19.3975C16.2938 19.1048 15.7826 18.3759 15.374 18.7822C15.1627 18.9846 15.7439 19.4413 15.874 19.5547C16.0041 19.668 16.4673 19.2837 16.6299 19.0166C16.7496 18.8509 16.922 18.7107 17.1709 17.6406C17.2501 17.3636 17.3528 17.2633 17.6016 17.0156C17.8505 16.7678 21.4786 13.7401 21.8818 12.4648C22.1176 11.8012 22.0038 11.5657 21.5039 12.0391C21.0039 12.5126 18.2354 14.5768 17.1865 14.8682C16.1378 15.1595 15.955 14.6314 16.1074 14.5039C16.2026 14.4088 18.5306 11.9029 15.9404 13.2539C14.9914 13.6017 14.0642 12.8325 13.8691 12.1445ZM8.57617 5.83105C8.4136 5.13498 8.22287 4.88807 7.44238 5.0459C6.66184 5.20375 4.80762 5.78613 4.80762 5.78613C4.79852 5.78968 4.52318 5.90088 4.74707 6.1875C4.97504 6.4792 6.07186 7.58013 5.17773 10.6553C4.36478 10.3802 2.57708 10.0403 2.39746 10.5254C2.21855 11.0111 1.60063 12.8165 2.39746 12.8408C4.60883 12.1367 7.1535 12.8488 9.09668 16.3857C9.27148 16.7257 9.49754 16.641 9.48535 16.2949C9.52799 15.9363 9.44594 14.354 8.50293 13.0234C8.72642 12.8588 10.4396 12.435 12.2676 11.1328C12.2676 11.1328 13.0193 10.7485 12.918 9.88477C12.6132 7.75456 10.9069 6.30962 10.4307 6.01758C9.959 5.72863 10.0146 6.30282 10.0156 6.3125C9.93023 7.95973 9.43301 10.38 7.66309 12.0312C7.04104 11.8558 6.81519 11.4211 6.80859 11.4082C6.82674 11.3846 9.19177 8.29845 8.57617 5.83105Z" fill="white"/>
</svg>
