<svg width="24" height="24" viewBox="0 0 24 24" fill="none" xmlns="http://www.w3.org/2000/svg">
<path fill-rule="evenodd" clip-rule="evenodd" d="M4.36364 0C3.20633 0 2.09642 0.459739 1.27808 1.27808C0.459739 2.09642 0 3.20633 0 4.36364V19.6364C0 20.7937 0.459739 21.9036 1.27808 22.7219C2.09642 23.5403 3.20633 24 4.36364 24H19.6364C20.7937 24 21.9036 23.5403 22.7219 22.7219C23.5403 21.9036 24 20.7937 24 19.6364V4.36364C24 3.20633 23.5403 2.09642 22.7219 1.27808C21.9036 0.459739 20.7937 0 19.6364 0H4.36364ZM4.63636 12C4.63382 10.3735 5.17226 8.79236 6.16691 7.50545C6.00166 8.09806 5.91546 8.7099 5.91055 9.32509C5.91055 10.9833 6.35673 12.6818 6.97855 13.98C7.28836 14.628 7.65927 15.2116 8.07164 15.6458C8.46109 16.0571 9.00764 16.4596 9.66655 16.4596C9.98073 16.4596 10.2305 16.3287 10.4007 16.2033C10.5709 16.0767 10.7105 15.9196 10.824 15.7702C11.0498 15.4735 11.2636 15.0829 11.4676 14.6749C11.6738 14.2582 11.8909 13.7782 12.1145 13.2818L12.1276 13.2535C12.3491 12.7604 12.5804 12.2487 12.8269 11.7371C13.3353 10.6844 13.8829 9.69709 14.4851 8.98036C15.0982 8.25273 15.6524 7.93964 16.1673 7.93964C17.184 7.93964 17.9182 8.51236 18.4604 9.384C19.0015 10.2524 19.2785 11.3193 19.3636 12.0447C19.3577 13.9977 18.5762 15.8683 17.1911 17.2451C15.8059 18.6218 13.9306 19.3919 11.9776 19.386C10.0247 19.3801 8.15407 18.5986 6.77731 17.2134C5.40055 15.8283 4.63043 13.953 4.63636 12ZM7.54691 9.32509C7.54691 7.94727 8.21782 6.45491 8.95636 5.29309C9.91196 4.85812 10.9501 4.63412 12 4.63636C13.7902 4.63636 15.4309 5.27564 16.7073 6.33818C16.5282 6.31539 16.3478 6.30373 16.1673 6.30327C14.9367 6.30327 13.9669 7.056 13.2349 7.92546C12.4931 8.80691 11.8735 9.948 11.3542 11.0258C11.0978 11.556 10.8589 12.0862 10.6385 12.5727L10.6233 12.6098C10.3964 13.1116 10.1924 13.5633 10.0015 13.9462C9.816 14.3215 9.66109 14.5898 9.53564 14.76C9.43436 14.6913 9.34169 14.6108 9.25964 14.52C9 14.2473 8.71745 13.8218 8.45345 13.2731C7.92764 12.1745 7.54691 10.7149 7.54691 9.32509ZM12 3C9.61305 3 7.32387 3.94821 5.63604 5.63604C3.94821 7.32387 3 9.61305 3 12C3 14.3869 3.94821 16.6761 5.63604 18.364C7.32387 20.0518 9.61305 21 12 21C14.3869 21 16.6761 20.0518 18.364 18.364C20.0518 16.6761 21 14.3869 21 12C21 9.61305 20.0518 7.32387 18.364 5.63604C16.6761 3.94821 14.3869 3 12 3ZM12 7.01345C13.0756 7.01345 13.9484 6.66436 13.9484 6.23345C13.9484 5.80255 13.0756 5.45455 12 5.45455C10.9244 5.45455 10.0516 5.80364 10.0516 6.23345C10.0516 6.66436 10.9244 7.01345 12 7.01345Z" fill="white"/>
</svg>
